<svg xmlns="http://www.w3.org/2000/svg" width="450" height="407" viewBox="0 0 450 407" version="1.1"><path d="M 195.919 64.168 C 195.665 65.211, 194.976 75.430, 194.785 81 C 194.526 88.556, 196.438 93.387, 201.715 98.511 C 204.866 101.572, 209.006 103.645, 208.995 102.156 C 208.992 101.795, 207.881 99.700, 206.526 97.500 C 203.130 91.987, 203.360 89.819, 206.833 94.600 C 213.475 103.742, 215.504 102.828, 215.492 90.697 C 215.481 78.812, 212.033 73.418, 199.750 66.078 C 197.688 64.845, 195.964 63.986, 195.919 64.168 M 232.852 111.231 C 230.141 115.455, 229.500 117.456, 229.500 121.691 C 229.500 125.346, 230.029 127.457, 231.250 128.679 C 232.917 130.345, 233.006 130.240, 233.116 126.464 C 233.180 124.284, 233.422 123.400, 233.655 124.500 C 235.219 131.894, 234.878 131.420, 237.150 129.365 C 240.134 126.663, 242.003 122.574, 241.978 118.800 C 241.955 115.369, 238.951 107.706, 237.206 106.627 C 236.655 106.287, 234.695 108.358, 232.852 111.231 M 135.230 119.675 C 135.697 126.963, 135.909 127.528, 139.347 130.679 C 141.340 132.505, 143.663 134, 144.508 134 C 145.847 134, 145.823 133.644, 144.324 131.250 L 142.601 128.500 145.227 130.855 C 146.671 132.150, 148.335 132.911, 148.926 132.546 C 151.674 130.848, 148.730 120.738, 144.356 116.850 C 143.335 115.942, 140.753 114.478, 138.618 113.596 L 134.736 111.992 135.230 119.675 M 169.852 114.514 C 164.775 117.158, 161.504 121.554, 160.563 127 C 159.831 131.235, 161.266 134.134, 163.158 132.242 C 164.923 130.477, 166.496 130.697, 165 132.500 C 163.982 133.726, 164.045 134, 165.343 134 C 168.143 134, 173.903 128.078, 174.415 124.674 C 175.592 116.850, 175.905 112.004, 175.231 112.047 C 174.829 112.072, 172.408 113.183, 169.852 114.514 M 252.467 129.941 C 248.973 131.720, 245 136.291, 245 138.532 C 245 138.930, 246.912 138.996, 249.250 138.678 L 253.500 138.100 250.191 139.325 C 245.874 140.923, 247.107 142, 253.253 142 C 257.912 142, 258.464 141.702, 263.663 136.377 C 269.979 129.908, 269.738 128.868, 261.785 128.279 C 257.851 127.988, 255.469 128.412, 252.467 129.941 M 278.835 132.750 C 276.872 134.813, 274.817 137.853, 274.269 139.507 C 273.199 142.740, 273.481 148.250, 274.841 150.681 C 275.579 152, 275.868 151.989, 277.267 150.591 C 278.716 149.141, 278.882 149.141, 279.177 150.597 C 279.689 153.124, 284.734 148.622, 285.827 144.663 C 286.923 140.694, 285.234 129, 283.565 129 C 282.927 129, 280.799 130.688, 278.835 132.750 M 164.388 147.080 C 162.249 148.774, 159.910 151.274, 159.189 152.636 C 157.618 155.602, 157.986 160.603, 159.750 160.250 C 160.438 160.112, 161 160.900, 161 162 C 161 164.664, 162.227 164.521, 165.904 161.427 C 167.656 159.953, 169.416 157.170, 170.024 154.912 C 171.084 150.975, 170.446 144, 169.026 144 C 168.613 144, 166.526 145.386, 164.388 147.080 M 318.222 147.470 C 312.737 149.182, 307.622 153.103, 304.277 158.158 C 302.076 161.483, 301.873 162.307, 303.066 163.062 C 304.825 164.175, 307.159 164.171, 312.986 163.048 C 316.781 162.315, 317.197 162.383, 315.690 163.484 C 314.711 164.201, 311.905 165.087, 309.455 165.454 C 304.214 166.240, 303.782 167.380, 308.149 168.902 C 317.630 172.207, 326.344 168.585, 335.863 157.382 C 339.363 153.263, 342.063 149.739, 341.863 149.549 C 341.664 149.360, 339.056 148.484, 336.068 147.603 C 329.598 145.693, 324.043 145.652, 318.222 147.470 M 150.195 153.500 C 150.215 155.150, 150.439 155.704, 150.693 154.731 C 150.947 153.758, 150.930 152.408, 150.656 151.731 C 150.382 151.054, 150.175 151.850, 150.195 153.500 M 114.053 156.886 C 112.348 160.528, 111.915 162.731, 112.398 165.309 C 113.199 169.577, 115.594 172.029, 116.300 169.303 C 116.744 167.591, 116.774 167.592, 116.884 169.333 C 117.188 174.136, 121.961 167.741, 121.984 162.500 C 121.998 159.228, 119.141 152.819, 117.432 152.287 C 116.844 152.104, 115.324 154.174, 114.053 156.886 M 235.300 163 C 235.300 166.025, 235.487 167.262, 235.716 165.750 C 235.945 164.238, 235.945 161.762, 235.716 160.250 C 235.487 158.738, 235.300 159.975, 235.300 163 M 245.449 168.468 C 243.550 173.014, 243.611 173.852, 246.148 178 C 248.103 181.198, 248.356 181.327, 249.074 179.500 C 249.506 178.400, 249.891 178.089, 249.930 178.809 C 250.040 180.871, 251.711 179.286, 252.425 176.441 C 253.093 173.783, 249.520 165, 247.772 165 C 247.291 165, 246.246 166.561, 245.449 168.468 M 109.450 187.407 C 106.491 188.696, 101 194.283, 101 196.005 C 101 197.129, 111.309 198.390, 114.319 197.635 C 117.162 196.921, 122 193.259, 122 191.820 C 122 191.252, 121.238 191.079, 120.306 191.436 C 118.774 192.024, 118.782 191.899, 120.389 190.123 C 122.097 188.236, 122.087 188.117, 120.149 187.080 C 117.468 185.645, 113.195 185.775, 109.450 187.407 M 333.017 191.148 C 323.843 192.658, 317.431 198.773, 315.507 207.850 C 314.835 211.022, 314.922 211.161, 317.149 210.473 C 318.442 210.073, 320.850 209.106, 322.500 208.324 C 325.447 206.926, 325.463 206.933, 323.369 208.701 C 322.196 209.690, 320.396 211.036, 319.369 211.691 C 317.703 212.753, 317.856 212.889, 320.782 212.941 C 325.093 213.018, 329.906 210.902, 332.969 207.582 C 334.937 205.448, 338.998 196.578, 340.275 191.625 C 340.622 190.276, 338.977 190.168, 333.017 191.148 M 153.250 191.689 C 154.213 191.941, 155.787 191.941, 156.750 191.689 C 157.713 191.438, 156.925 191.232, 155 191.232 C 153.075 191.232, 152.287 191.438, 153.250 191.689 M 297.923 200.923 C 294.233 204.613, 293.899 209, 297.309 209 C 300.981 209, 303.088 206.762, 303.698 202.215 C 304.171 198.686, 303.985 198, 302.555 198 C 301.615 198, 299.531 199.315, 297.923 200.923 M 279.189 205.039 C 276.376 207.659, 276.223 212, 278.943 212 C 281.295 212, 284 208.404, 284 205.277 C 284 202.453, 282.067 202.357, 279.189 205.039 M 171.942 209.472 C 166.829 212.252, 165.648 221, 170.386 221 C 174.770 221, 180 214.761, 180 209.532 C 180 207.584, 175.474 207.550, 171.942 209.472 M 108.507 216.988 C 107.743 218.225, 111.153 226.070, 113.183 227.744 C 115.605 229.743, 120.304 230.177, 122.334 228.590 C 124.074 227.230, 124.082 226.976, 122.491 223.622 C 120.136 218.659, 110.345 214.015, 108.507 216.988 M 193.378 238.447 C 190.344 240.573, 188.654 245.386, 189.287 250.101 C 189.975 255.233, 190.762 256.013, 192.716 253.498 C 193.966 251.890, 194.152 251.841, 193.666 253.250 C 192.813 255.726, 194.590 255.423, 196.443 252.777 C 198.256 250.190, 198.349 244.883, 196.665 240.237 C 195.552 237.170, 195.355 237.063, 193.378 238.447 M 327.410 238.026 C 324.106 239.040, 319 243.233, 319 244.933 C 319 245.499, 320.012 246.178, 321.250 246.442 C 322.488 246.706, 324.400 247.112, 325.500 247.345 C 326.600 247.578, 325.813 247.820, 323.750 247.884 C 319.002 248.031, 318.934 249.493, 323.603 251.034 C 329.212 252.885, 334.638 251.508, 340.642 246.708 C 343.537 244.394, 345.927 242.169, 345.953 241.763 C 346.028 240.598, 338.893 237.933, 334.500 237.486 C 332.300 237.262, 329.109 237.505, 327.410 238.026 M 206.300 244 C 206.300 247.025, 206.487 248.262, 206.716 246.750 C 206.945 245.238, 206.945 242.762, 206.716 241.250 C 206.487 239.738, 206.300 240.975, 206.300 244 M 127.312 245.945 C 122.704 248.037, 117.524 254.338, 116.472 259.129 C 116.108 260.787, 115.965 262.291, 116.155 262.473 C 117.022 263.301, 131.142 260.137, 133.512 258.584 C 135.985 256.964, 140.432 249.098, 139.437 248.104 C 139.192 247.859, 137.789 248.748, 136.318 250.079 L 133.645 252.500 135.886 249.257 C 137.118 247.473, 137.846 245.561, 137.504 245.007 C 136.532 243.434, 131.905 243.860, 127.312 245.945 M 299 254.566 C 299 254.877, 299.515 256.114, 300.146 257.316 L 301.291 259.500 298.996 257.500 L 296.701 255.500 297.424 258.500 C 298.746 263.979, 302.145 266.404, 311.390 268.464 C 314.228 269.097, 314.269 269.045, 313.700 265.539 C 313.061 261.604, 310.015 257.163, 306.666 255.285 C 304.461 254.049, 299 253.536, 299 254.566 M 165.873 263.684 C 162.424 265.824, 160 270.050, 160 273.923 C 160 276.814, 160.197 276.991, 162.750 276.379 C 167.042 275.350, 170.734 273.217, 172.439 270.783 C 174.116 268.390, 174.590 264.517, 173.093 265.442 C 172.595 265.751, 172.422 265.102, 172.710 264.001 C 173.126 262.412, 172.747 262.005, 170.867 262.027 C 169.565 262.041, 167.318 262.787, 165.873 263.684 M 259.654 263.679 C 259.370 263.963, 259.408 264.900, 259.739 265.762 C 260.166 266.875, 259.959 267.093, 259.024 266.515 C 257.998 265.881, 257.868 266.338, 258.435 268.595 C 258.834 270.187, 259.651 272.080, 260.251 272.802 C 261.335 274.108, 267.446 277, 269.122 277 C 270.691 277, 270.042 271.581, 268.090 268.381 C 266.342 265.514, 260.869 262.464, 259.654 263.679" stroke="none" fill="#79c844" fill-rule="evenodd"/><path d="M 194.446 64.087 C 194.077 64.685, 194.341 65.698, 195.034 66.337 C 195.993 67.223, 196.135 67.218, 195.630 66.319 C 194.079 63.556, 197.114 64.362, 203.045 68.289 C 207.366 71.149, 210.384 74.104, 212.453 77.500 C 215.195 81.999, 215.500 83.322, 215.500 90.697 C 215.500 102.827, 213.473 103.740, 206.833 94.600 C 203.360 89.819, 203.130 91.987, 206.526 97.500 C 209.453 102.252, 209.589 103.152, 207.250 102.298 C 202.382 100.522, 196.914 94.011, 195.159 87.904 C 194.413 85.310, 194.159 85.045, 194.090 86.790 C 193.959 90.115, 197.368 96.238, 201.245 99.642 C 205.569 103.439, 211.207 105.879, 211.767 104.198 C 211.987 103.539, 212.783 103, 213.536 103 C 215.352 103, 216.990 96.825, 216.985 90 C 216.977 79.840, 212.012 72.271, 201.090 65.767 C 195.924 62.691, 195.392 62.557, 194.446 64.087 M 246.500 69.392 C 237.278 72.294, 231.883 77.023, 228.998 84.736 C 226.590 91.171, 226.349 97.813, 228.494 98.636 C 229.316 98.952, 229.740 99.612, 229.435 100.105 C 228.448 101.702, 235.389 101.008, 239.500 99.098 C 247.164 95.539, 250.067 91.315, 252.366 80.376 C 253.161 76.594, 254.128 72.263, 254.514 70.750 C 255.135 68.319, 254.943 68.008, 252.858 68.067 C 251.561 68.104, 248.700 68.700, 246.500 69.392 M 194.252 76.500 C 194.263 78.700, 194.468 79.482, 194.707 78.238 C 194.946 76.994, 194.937 75.194, 194.687 74.238 C 194.437 73.282, 194.241 74.300, 194.252 76.500 M 278.900 83.250 C 278.730 83.672, 278.059 96.150, 277.864 102.500 C 277.596 111.255, 281.018 117.229, 289.215 122.315 C 292.078 124.092, 296.511 124.636, 295.558 123.093 C 295.249 122.595, 295.868 122.414, 296.933 122.693 C 301.389 123.858, 302.301 106.431, 298.205 98.402 C 295.783 93.655, 289.719 87.918, 284.085 85.043 C 280.258 83.091, 279.121 82.698, 278.900 83.250 M 160 95.726 C 160 96.218, 157.975 98.992, 155.500 101.891 C 151.420 106.671, 151 107.649, 151 112.359 C 151 115.443, 151.633 118.458, 152.557 119.777 C 154.270 122.223, 157.866 122.699, 159.912 120.750 C 160.979 119.734, 161.119 119.874, 160.660 121.500 C 158.380 129.572, 158.734 133.252, 161.955 134.976 C 163.318 135.706, 164.710 135.658, 166.693 134.814 C 169.971 133.418, 174 130.059, 174 128.722 C 174 128.211, 172.409 129.189, 170.465 130.896 C 166.739 134.168, 162.610 135.379, 165 132.500 C 166.496 130.697, 164.923 130.477, 163.158 132.242 C 159.903 135.497, 159.407 126.203, 162.574 121.285 C 164.331 118.556, 164.390 117.657, 162.750 118.601 C 162.024 119.019, 161.849 118.939, 162.333 118.410 C 162.792 117.910, 163.467 117.479, 163.833 117.453 C 164.200 117.427, 166.879 116.173, 169.787 114.667 C 172.696 113.161, 175.508 112.196, 176.037 112.523 C 176.567 112.850, 177 112.641, 177 112.059 C 177 110.465, 174.994 110.820, 169.899 113.319 L 165.297 115.575 165.664 109.037 C 165.937 104.190, 165.575 101.614, 164.266 99.073 C 162.594 95.828, 160 93.793, 160 95.726 M 181.599 104.333 C 180.687 115.566, 182.670 120.271, 190.312 125.010 C 192.573 126.412, 193.591 126.533, 195.511 125.627 C 198.299 124.311, 198.968 122.353, 198.986 115.446 C 199.004 108.907, 194.941 102.222, 188.740 98.588 C 186.311 97.164, 183.863 96, 183.300 96 C 182.736 96, 181.971 99.750, 181.599 104.333 M 258.852 103.514 C 253.429 106.338, 250.244 110.940, 249.388 117.188 C 248.346 124.788, 253.189 127.030, 260 122.100 C 263.839 119.322, 265.705 115.144, 266.411 107.750 C 267.166 99.843, 266.556 99.502, 258.852 103.514 M 232.511 109.801 C 227.865 116.689, 226.935 122.677, 229.695 127.949 C 232.749 133.784, 239.951 134.004, 240.554 128.281 C 240.657 127.301, 241.073 125.600, 241.477 124.500 C 241.882 123.400, 241.338 123.850, 240.268 125.500 C 239.199 127.150, 237.595 129.102, 236.703 129.838 C 234.987 131.255, 235.140 131.523, 233.655 124.500 C 233.422 123.400, 233.180 124.284, 233.116 126.464 C 233.006 130.240, 232.917 130.345, 231.250 128.679 C 230.029 127.457, 229.500 125.346, 229.500 121.691 C 229.500 117.456, 230.141 115.455, 232.852 111.231 C 234.695 108.358, 236.655 106.287, 237.206 106.627 C 237.757 106.968, 239.052 109.104, 240.082 111.373 C 241.113 113.643, 241.966 114.920, 241.978 114.210 C 242.005 112.645, 238.360 105.340, 237.192 104.619 C 236.732 104.334, 234.626 106.666, 232.511 109.801 M 133.915 111.750 C 133.603 114.490, 134.292 123.616, 134.944 125.374 C 135.377 126.546, 135.508 124.021, 135.233 119.746 L 134.736 111.992 138.618 113.596 C 140.753 114.478, 143.335 115.942, 144.356 116.850 C 148.730 120.738, 151.674 130.848, 148.926 132.546 C 148.335 132.911, 146.671 132.150, 145.227 130.855 L 142.601 128.500 144.324 131.250 C 146.809 135.218, 144.152 134.950, 139.367 130.750 C 136.644 128.361, 135.962 128.058, 136.791 129.608 C 138.109 132.072, 141.787 134.657, 145.190 135.511 C 146.874 135.934, 148.137 135.506, 149.435 134.072 C 152.087 131.141, 151.024 123.017, 147.422 118.692 C 143.662 114.178, 134.192 109.310, 133.915 111.750 M 175.180 119.168 C 175.081 121.736, 174.741 124.661, 174.424 125.668 C 173.885 127.386, 173.919 127.390, 174.979 125.742 C 175.600 124.774, 175.941 121.849, 175.735 119.242 L 175.360 114.500 175.180 119.168 M 242.195 118.500 C 242.215 120.150, 242.439 120.704, 242.693 119.731 C 242.947 118.758, 242.930 117.408, 242.656 116.731 C 242.382 116.054, 242.175 116.850, 242.195 118.500 M 246.457 126.931 C 246.774 127.443, 246.546 128.163, 245.950 128.531 C 244.352 129.518, 238.999 137.123, 239.004 138.400 C 239.006 139.005, 239.951 137.925, 241.103 136 C 242.256 134.075, 244.593 131.037, 246.296 129.250 C 248.763 126.661, 249.036 126, 247.637 126 C 246.672 126, 246.141 126.419, 246.457 126.931 M 252.101 129.040 C 249.682 130.137, 247.955 131.289, 248.264 131.598 C 248.574 131.907, 249.986 131.400, 251.402 130.472 C 252.819 129.544, 256.346 128.439, 259.239 128.017 C 264.183 127.296, 264.259 127.243, 260.500 127.147 C 258.300 127.090, 254.520 127.942, 252.101 129.040 M 280.186 129.980 C 273.841 134.577, 271.298 140.919, 272.915 148.116 C 274.426 154.842, 278.388 155.937, 283.074 150.921 C 287.139 146.569, 288.003 142.531, 286.674 134.089 C 286.060 130.190, 285.274 127, 284.929 127 C 284.583 127, 282.449 128.341, 280.186 129.980 M 312 127.918 C 311.175 128.389, 308.662 129.077, 306.416 129.447 C 298.115 130.814, 292.546 136.653, 293.191 143.314 C 293.499 146.492, 293.515 146.500, 299.226 146.476 C 304.514 146.454, 305.257 146.155, 308.927 142.572 C 311.848 139.719, 313.179 137.395, 313.950 133.796 C 315.509 126.527, 315.338 126.011, 312 127.918 M 153.587 133.250 C 150.571 144.028, 150.014 146.562, 150.122 149 C 150.209 150.985, 150.319 151.088, 150.654 149.500 C 153.225 137.332, 154.376 133.706, 155.091 135.533 C 155.775 137.285, 155.869 137.227, 155.943 135 C 155.990 133.625, 156.299 131.488, 156.630 130.250 C 156.985 128.925, 156.786 128, 156.145 128 C 155.546 128, 154.395 130.363, 153.587 133.250 M 266.835 128.976 L 269.169 129.998 266.016 133.980 C 261.312 139.919, 257.873 142, 252.762 142 C 247.068 142, 245.991 140.880, 250.191 139.325 L 253.500 138.100 249.250 138.678 C 244.614 139.308, 244.188 138.716, 246.580 134.973 L 248.160 132.500 246.057 134.889 C 243.910 137.329, 244.060 140.703, 246.385 142.235 C 248.161 143.405, 257.293 143.047, 259.640 141.715 C 262.034 140.356, 271.468 130.135, 270.876 129.542 C 270.667 129.333, 269.147 128.891, 267.498 128.558 C 264.807 128.016, 264.739 128.059, 266.835 128.976 M 278.835 132.750 C 276.872 134.813, 274.817 137.853, 274.269 139.507 C 273.199 142.740, 273.481 148.250, 274.841 150.681 C 275.579 152, 275.868 151.989, 277.267 150.591 C 278.716 149.141, 278.882 149.141, 279.177 150.597 C 279.689 153.124, 284.734 148.622, 285.827 144.663 C 286.923 140.694, 285.234 129, 283.565 129 C 282.927 129, 280.799 130.688, 278.835 132.750 M 207.269 132.693 C 208.242 132.947, 209.592 132.930, 210.269 132.656 C 210.946 132.382, 210.150 132.175, 208.500 132.195 C 206.850 132.215, 206.296 132.439, 207.269 132.693 M 179.015 134.691 C 179.024 135.686, 179.467 137.175, 180 138 C 180.758 139.173, 180.973 138.914, 180.985 136.809 C 180.993 135.329, 180.550 133.840, 180 133.500 C 179.450 133.160, 179.007 133.696, 179.015 134.691 M 215.250 135.489 C 216.762 137.020, 218 138.961, 218 139.803 C 218 140.645, 218.301 141.033, 218.668 140.665 C 219.668 139.665, 216.872 134.999, 214.540 133.775 C 213.025 132.981, 213.208 133.422, 215.250 135.489 M 126 134.721 C 122.102 135.420, 121.359 136.754, 123.670 138.907 C 124.802 139.962, 126.697 142.392, 127.880 144.306 C 130.458 148.478, 135.338 151, 140.830 151 C 145.039 151, 148 149.048, 148 146.273 C 148 143.503, 142.878 137.849, 138.616 135.913 C 134.635 134.105, 131.227 133.783, 126 134.721 M 232.195 137.399 C 228.685 142.553, 226.386 149.483, 224.528 160.500 C 223.601 166, 222.025 174.030, 221.027 178.345 C 220.028 182.659, 219.563 185.809, 219.995 185.345 C 220.808 184.468, 224.144 169.327, 226.019 158 C 227.550 148.751, 229.669 142.758, 233.063 138.072 C 234.685 135.832, 235.672 134.003, 235.256 134.007 C 234.840 134.011, 233.463 135.537, 232.195 137.399 M 154.343 147.500 C 154.346 151.900, 154.522 153.576, 154.733 151.224 C 154.945 148.872, 154.942 145.272, 154.727 143.224 C 154.512 141.176, 154.339 143.100, 154.343 147.500 M 163.182 146.761 C 158.226 151.178, 157.809 151.908, 157.047 157.500 C 156.597 160.800, 156.614 164.175, 157.084 165 C 157.705 166.089, 157.948 166.139, 157.970 165.183 C 157.989 164.327, 158.696 164.086, 159.988 164.496 C 162.508 165.296, 167.243 162.552, 169.273 159.114 C 170.122 157.677, 171.078 154.700, 171.397 152.500 C 171.920 148.900, 171.834 148.999, 170.536 153.500 C 168.525 160.472, 161 167.179, 161 162 C 161 160.900, 160.438 160.113, 159.750 160.250 C 157.986 160.603, 157.618 155.602, 159.189 152.636 C 160.524 150.115, 167.569 144, 169.138 144 C 169.612 144, 170 144.975, 170 146.167 C 170 147.358, 170.279 148.054, 170.620 147.713 C 171.408 146.925, 170.207 141.996, 169.231 142.011 C 168.829 142.017, 166.107 144.155, 163.182 146.761 M 217.304 147.005 C 216.523 149.075, 214.821 150.621, 211.835 151.975 C 208.352 153.554, 208.089 153.829, 210.500 153.374 C 213.748 152.760, 219 147.886, 219 145.484 C 219 143.274, 218.565 143.664, 217.304 147.005 M 318.173 146.484 C 308.344 149.551, 300.333 158.415, 301.612 164.808 C 302.098 167.238, 302.993 168.173, 305.684 169.061 C 307.582 169.687, 309.350 169.984, 309.614 169.720 C 309.877 169.456, 308.947 168.953, 307.547 168.601 C 303.645 167.622, 304.510 166.196, 309.455 165.454 C 315.223 164.590, 318.996 162.169, 313.593 162.799 C 311.606 163.031, 309.734 163.621, 309.432 164.110 C 308.615 165.432, 305.758 165.132, 303.598 163.497 C 301.748 162.097, 301.768 161.949, 304.309 158.110 C 309.173 150.760, 318.083 146, 326.977 146 C 330.131 146, 340.802 148.544, 341.863 149.549 C 342.063 149.739, 339.363 153.263, 335.863 157.382 C 331.753 162.220, 327.749 165.778, 324.554 167.435 C 321.833 168.846, 320.164 170, 320.843 170 C 321.523 170, 323.758 169.144, 325.810 168.097 C 330.321 165.796, 344.651 150.239, 343.388 149.015 C 341.965 147.637, 330.564 144.994, 326.356 145.067 C 324.235 145.104, 320.553 145.741, 318.173 146.484 M 199.030 147.677 C 198.990 149.256, 203.860 153.010, 205.885 152.961 C 206.773 152.939, 206.083 152.305, 204.350 151.551 C 202.618 150.798, 200.719 149.353, 200.131 148.340 C 199.542 147.328, 199.047 147.030, 199.030 147.677 M 256.150 149.340 C 253.030 152.662, 251.816 157.603, 253.021 162.078 C 254.160 166.308, 256.297 168.484, 258.487 167.643 C 260.504 166.869, 260.397 167.622, 257.918 171.632 C 256.774 173.484, 256.052 175, 256.314 175 C 257.546 175, 263.079 164.937, 262.427 163.881 C 262.001 163.193, 262.116 162.954, 262.699 163.314 C 263.254 163.657, 264.231 162.714, 264.870 161.219 C 265.950 158.693, 265.925 158.638, 264.516 160.441 C 263.069 162.294, 263 162.243, 263 159.318 C 263 156.761, 259.535 147, 258.628 147 C 258.474 147, 257.359 148.053, 256.150 149.340 M 269.667 149.667 C 268.565 150.769, 268.914 152.017, 270.250 151.750 C 272.204 151.359, 272.320 157.389, 270.479 163.719 C 268.585 170.235, 264.072 179.550, 259.771 185.820 C 258.141 188.196, 257.076 190.409, 257.404 190.737 C 257.732 191.065, 258 190.782, 258 190.108 C 258 189.434, 258.520 189.203, 259.155 189.595 C 259.790 189.988, 260.040 189.874, 259.711 189.342 C 259.383 188.810, 260.012 187.053, 261.110 185.438 C 267.266 176.377, 273 161.892, 273 155.400 C 273 150.234, 271.566 147.767, 269.667 149.667 M 113.697 155.545 C 110.654 161.750, 110.307 165.565, 112.500 168.696 C 113.325 169.874, 113.727 171.549, 113.393 172.419 C 113.059 173.288, 113.270 174, 113.862 174 C 114.453 174, 114.707 174.601, 114.425 175.335 C 114.143 176.070, 114.720 177.542, 115.706 178.606 C 116.693 179.671, 117.162 180.105, 116.750 179.571 C 114.880 177.150, 116.273 176.880, 118.750 179.183 C 120.263 180.590, 122.850 182.522, 124.500 183.476 L 127.500 185.211 124.500 182.907 C 122.850 181.639, 119.772 178.779, 117.661 176.551 C 113.842 172.522, 113.835 172.498, 116.307 172.194 C 123.966 171.249, 125.252 158.063, 118.299 151.771 C 116.462 150.108, 116.297 150.243, 113.697 155.545 M 187.001 154.341 C 188.926 156.453, 193.160 159.533, 196.411 161.186 C 203.722 164.903, 212.045 172.648, 215.981 179.398 C 217.617 182.204, 218.966 184.130, 218.978 183.678 C 219.031 181.719, 213.282 173.377, 208.771 168.866 C 206.073 166.168, 201.084 162.574, 197.683 160.879 C 194.282 159.184, 189.701 156.155, 187.501 154.148 L 183.503 150.500 187.001 154.341 M 114.053 156.886 C 112.348 160.528, 111.915 162.731, 112.398 165.309 C 113.199 169.577, 115.594 172.029, 116.300 169.303 C 116.744 167.591, 116.774 167.592, 116.884 169.333 C 117.188 174.136, 121.961 167.741, 121.984 162.500 C 121.998 159.228, 119.141 152.819, 117.432 152.287 C 116.844 152.104, 115.324 154.174, 114.053 156.886 M 149.286 157.500 C 149.294 160.250, 149.488 161.256, 149.718 159.736 C 149.947 158.216, 149.941 155.966, 149.704 154.736 C 149.467 153.506, 149.279 154.750, 149.286 157.500 M 171.791 162.416 C 166.262 167.494, 165.416 174.547, 170.039 177.021 C 171.718 177.920, 172.541 177.612, 174.976 175.178 C 176.583 173.571, 178.205 171.033, 178.580 169.538 C 179.270 166.787, 177.517 158.996, 176.210 159.005 C 175.819 159.007, 173.831 160.542, 171.791 162.416 M 131.223 163.557 C 130 164.413, 129.014 165.650, 129.032 166.307 C 129.050 166.977, 129.637 166.745, 130.373 165.777 C 131.092 164.829, 132.766 163.620, 134.091 163.090 C 135.416 162.560, 135.813 162.098, 134.973 162.063 C 134.132 162.029, 132.445 162.701, 131.223 163.557 M 138.730 162.703 C 141.531 163.244, 145 167.558, 145 170.500 C 145 171.727, 144.069 173.914, 142.931 175.360 C 141.523 177.150, 141.334 177.809, 142.340 177.423 C 144.450 176.613, 146.337 171.478, 145.601 168.547 C 144.779 165.271, 141.149 161.965, 138.561 162.136 C 136.661 162.262, 136.674 162.306, 138.730 162.703 M 150.110 165.239 C 149.850 171.727, 155.948 182.729, 162.248 187.136 C 164.780 188.908, 164.493 188.421, 160.953 184.940 C 155.921 179.992, 152.385 173.522, 151.078 166.868 C 150.458 163.716, 150.189 163.263, 150.110 165.239 M 245.526 165.950 C 244.687 167.573, 244.018 169.486, 244.039 170.200 C 244.061 170.915, 244.714 170.037, 245.491 168.250 C 246.268 166.463, 247.295 165, 247.774 165 C 249.521 165, 253.092 173.785, 252.425 176.441 C 251.711 179.286, 250.040 180.871, 249.930 178.809 C 249.891 178.089, 249.506 178.400, 249.074 179.500 C 248.356 181.327, 248.103 181.198, 246.148 178 C 243.815 174.185, 243.320 174.413, 245.161 178.453 C 245.799 179.854, 246.699 181.056, 247.161 181.125 C 247.622 181.194, 248.450 181.363, 249 181.500 C 249.550 181.637, 250.280 181.806, 250.622 181.875 C 250.965 181.944, 250.627 182.787, 249.872 183.750 C 248.639 185.323, 248.671 185.366, 250.191 184.177 C 251.120 183.449, 251.628 182.193, 251.318 181.386 C 250.992 180.538, 251.263 180.041, 251.960 180.209 C 252.699 180.388, 253.313 178.988, 253.549 176.588 C 253.834 173.687, 253.232 171.427, 251.217 167.839 C 249.723 165.179, 248.174 163.002, 247.776 163.001 C 247.377 163, 246.365 164.328, 245.526 165.950 M 276.455 166.455 C 273.336 169.573, 273.168 174.834, 276.080 178.139 L 278.160 180.500 276.580 178.027 C 272.701 171.958, 276.260 165, 283.242 165 C 285.954 165, 287.372 165.657, 288.927 167.635 C 290.067 169.084, 291 169.837, 291 169.309 C 291 168.781, 289.958 167.370, 288.686 166.174 C 285.420 163.106, 279.671 163.238, 276.455 166.455 M 92.548 166.588 C 87.103 168.582, 86.660 169.852, 90.349 172.892 C 92.082 174.319, 94.058 176.016, 94.741 176.663 C 97.505 179.283, 102.974 180.267, 107.586 178.976 C 111.401 177.908, 112 177.376, 112 175.057 C 112 171.829, 107.931 167.750, 103.101 166.136 C 98.862 164.719, 97.491 164.778, 92.548 166.588 M 189.958 169.250 C 192.410 171.863, 194.548 174, 194.708 174 C 195.459 174, 194.665 173.102, 190.250 168.958 L 185.500 164.500 189.958 169.250 M 128.195 170.500 C 128.215 172.150, 128.439 172.704, 128.693 171.731 C 128.947 170.758, 128.930 169.408, 128.656 168.731 C 128.382 168.054, 128.175 168.850, 128.195 170.500 M 235.286 172.500 C 235.294 175.250, 235.488 176.256, 235.718 174.736 C 235.947 173.216, 235.941 170.966, 235.704 169.736 C 235.467 168.506, 235.279 169.750, 235.286 172.500 M 159.809 170.642 C 161.193 173.229, 166.606 177.905, 169.444 178.965 C 174.941 181.018, 175.911 180.756, 171.115 178.513 C 168.154 177.128, 164.140 174.308, 162.197 172.247 C 160.253 170.186, 159.178 169.464, 159.809 170.642 M 312.750 170.706 C 313.988 170.944, 316.012 170.944, 317.250 170.706 C 318.488 170.467, 317.475 170.272, 315 170.272 C 312.525 170.272, 311.512 170.467, 312.750 170.706 M 196 174.313 C 196 174.485, 197.463 175.948, 199.250 177.563 L 202.500 180.500 199.563 177.250 C 196.825 174.221, 196 173.540, 196 174.313 M 310.135 174.700 C 303.932 175.931, 297.386 182.464, 298.566 186.245 C 299.567 189.452, 300.764 189.967, 307.257 189.985 C 312.978 190, 313.049 189.964, 318.941 183.980 C 324.781 178.048, 324.836 177.939, 322.684 176.576 C 320.182 174.991, 313.617 174.009, 310.135 174.700 M 287.694 178.532 C 286.151 179.889, 285.285 181, 285.770 181 C 286.255 181, 287.708 179.875, 289 178.500 C 291.989 175.319, 291.328 175.335, 287.694 178.532 M 203.511 183.377 C 204.457 184.820, 205.419 186, 205.650 186 C 206.374 186, 204.045 182.146, 202.891 181.433 C 202.287 181.059, 202.566 181.934, 203.511 183.377 M 183 183.335 C 183 183.593, 184.452 184.311, 186.227 184.929 C 188.002 185.548, 189.015 185.643, 188.477 185.140 C 187.338 184.074, 183 182.644, 183 183.335 M 276.768 184.725 C 278.565 184.947, 281.265 184.943, 282.768 184.715 C 284.271 184.486, 282.800 184.304, 279.500 184.310 C 276.200 184.315, 274.971 184.502, 276.768 184.725 M 114.269 185.693 C 115.242 185.947, 116.592 185.930, 117.269 185.656 C 117.946 185.382, 117.150 185.175, 115.500 185.195 C 113.850 185.215, 113.296 185.439, 114.269 185.693 M 122.566 186.107 C 123.030 186.858, 122.487 187.004, 120.875 186.559 C 118.794 185.986, 118.726 186.046, 120.323 187.043 C 122.067 188.132, 122.070 188.266, 120.379 190.134 C 118.686 192.004, 118.689 192.057, 120.443 191.384 C 123.432 190.236, 121.793 193.197, 118.025 195.750 C 115.995 197.125, 113.110 198.027, 110.602 198.070 C 107.540 198.123, 107.007 198.340, 108.500 198.925 C 110.605 199.751, 114.915 198.864, 118.835 196.800 C 121.756 195.262, 124.201 190.686, 123.323 188.399 C 122.821 187.091, 123.004 186.879, 124.080 187.528 C 125.292 188.259, 125.299 188.136, 124.128 186.692 C 122.593 184.800, 121.507 184.394, 122.566 186.107 M 106.730 187.840 C 103.963 189.664, 99 195.670, 99 197.194 C 99 197.637, 100.688 197.933, 102.750 197.850 C 105.766 197.730, 105.962 197.619, 103.750 197.284 C 102.237 197.055, 101 196.482, 101 196.010 C 101 194.284, 106.487 188.698, 109.450 187.407 C 111.128 186.676, 111.825 186.064, 111 186.046 C 110.175 186.028, 108.253 186.835, 106.730 187.840 M 198.500 191.191 C 200.150 192.456, 202.452 194.506, 203.615 195.746 C 204.778 196.986, 206.103 198, 206.560 198 C 207.723 198, 200.024 191.058, 197.540 189.868 C 196.418 189.330, 196.850 189.925, 198.500 191.191 M 207.232 193 C 207.232 194.925, 207.438 195.713, 207.689 194.750 C 207.941 193.787, 207.941 192.213, 207.689 191.250 C 207.438 190.287, 207.232 191.075, 207.232 193 M 333.250 190.689 C 334.212 190.941, 335.788 190.941, 336.750 190.689 C 337.712 190.438, 336.925 190.232, 335 190.232 C 333.075 190.232, 332.288 190.438, 333.250 190.689 M 340.239 191.250 C 340.002 194.371, 335.196 205.167, 332.969 207.582 C 329.906 210.902, 325.093 213.018, 320.782 212.941 C 317.856 212.889, 317.703 212.753, 319.369 211.691 C 320.396 211.036, 322.196 209.715, 323.369 208.755 C 325.154 207.294, 324.728 207.343, 320.738 209.057 C 318.120 210.183, 315.532 210.829, 314.988 210.493 C 313.276 209.434, 313.918 211.217, 315.750 212.608 C 316.712 213.339, 319.202 213.951, 321.282 213.968 C 329.517 214.037, 335.504 209.113, 338.532 199.781 C 339.475 196.876, 340.641 194.072, 341.123 193.550 C 342.236 192.344, 342.265 190, 341.167 190 C 340.708 190, 340.291 190.563, 340.239 191.250 M 283.263 193.159 C 283.028 196.284, 284.636 198.761, 288.048 200.525 C 290.734 201.914, 291.095 201.915, 291.626 200.533 C 292.812 197.441, 291.007 193.901, 287.497 192.434 C 283.203 190.640, 283.456 190.597, 283.263 193.159 M 229.695 196.513 C 228.781 198.431, 228.376 200, 228.797 200 C 229.580 200, 232.210 193.876, 231.662 193.329 C 231.495 193.162, 230.610 194.594, 229.695 196.513 M 321.615 195.088 C 320.155 196.237, 318.294 198.465, 317.480 200.039 C 315.262 204.328, 315.705 205.004, 318.110 201 C 319.266 199.075, 321.402 196.504, 322.856 195.286 C 326.218 192.471, 325.157 192.302, 321.615 195.088 M 137.831 194.874 C 138.764 195.466, 138.183 195.913, 135.883 196.373 C 134.080 196.734, 131.571 197.706, 130.307 198.534 C 127.871 200.131, 125 205.916, 125 209.231 C 125 210.874, 125.452 211.103, 127.617 210.560 C 129.056 210.199, 131.540 209.642, 133.136 209.323 C 137.493 208.451, 141.193 203.523, 140.811 199.101 C 140.506 195.574, 139.499 194.031, 137.500 194.031 C 136.950 194.031, 137.099 194.410, 137.831 194.874 M 266.500 198.927 C 260.154 203.060, 254.986 207.564, 250.948 212.481 C 249.602 214.120, 251.891 212.300, 256.036 208.437 C 260.181 204.573, 266.031 199.979, 269.036 198.228 C 272.041 196.477, 274.050 195.038, 273.500 195.032 C 272.950 195.025, 269.800 196.778, 266.500 198.927 M 143.500 197 C 144.600 197.473, 146.175 197.859, 147 197.859 C 147.945 197.859, 147.761 197.542, 146.500 197 C 145.400 196.527, 143.825 196.141, 143 196.141 C 142.055 196.141, 142.239 196.458, 143.500 197 M 298.304 198.956 C 293.408 201.941, 292.302 211, 296.834 211 C 299.430 211, 304.018 207.231, 303.921 205.177 C 303.857 203.812, 303.743 203.779, 303.306 205 C 302.497 207.263, 299.893 209, 297.309 209 C 293.899 209, 294.233 204.613, 297.923 200.923 C 301.609 197.237, 303.743 197.179, 304.284 200.750 C 304.671 203.310, 304.711 203.275, 304.850 200.250 C 305.030 196.357, 303.170 195.989, 298.304 198.956 M 150.500 199 C 151.600 199.473, 153.400 199.846, 154.500 199.830 C 156.108 199.806, 156.010 199.644, 154 199 C 150.581 197.905, 147.952 197.905, 150.500 199 M 160 201.056 C 161.925 201.524, 166.829 202.383, 170.899 202.964 C 174.968 203.546, 180.918 205.197, 184.121 206.635 C 190.541 209.516, 198.712 217.367, 200.927 222.782 C 201.665 224.587, 202.465 225.868, 202.704 225.629 C 203.611 224.722, 199.007 217.249, 194.995 213.115 C 189.318 207.264, 180.625 203.431, 168.761 201.547 C 158.346 199.893, 154.280 199.665, 160 201.056 M 279.672 203.172 C 275.955 205.943, 274.717 209.286, 276.201 212.543 C 276.996 214.286, 277.847 214.870, 278.928 214.415 C 279.793 214.051, 281.850 213.404, 283.500 212.979 C 285.150 212.553, 285.712 212.159, 284.750 212.102 C 282.841 211.991, 282.407 210.485, 284 209.500 C 285.489 208.580, 285.265 200.993, 283.750 201.032 C 283.063 201.049, 281.227 202.012, 279.672 203.172 M 279.189 205.039 C 276.376 207.659, 276.223 212, 278.943 212 C 281.295 212, 284 208.404, 284 205.277 C 284 202.453, 282.067 202.357, 279.189 205.039 M 261.657 205.451 C 260.762 207.783, 264.190 211.011, 268.250 211.661 C 271.598 212.197, 272 212.033, 272 210.131 C 272 205.489, 263.175 201.496, 261.657 205.451 M 177.689 207.698 C 178.892 207.932, 180.078 208.883, 180.323 209.811 C 180.638 211.008, 180.802 210.844, 180.884 209.250 C 180.979 207.404, 180.506 207.024, 178.250 207.136 C 175.986 207.248, 175.887 207.348, 177.689 207.698 M 168.537 211.139 C 165.046 215.287, 165.220 221.319, 168.845 221.832 C 173.734 222.524, 180.093 217.383, 179.961 212.846 C 179.939 212.106, 179.310 212.905, 178.563 214.622 C 175.919 220.696, 168.784 223.259, 167.604 218.557 C 166.793 215.329, 168.765 211.199, 171.942 209.472 C 173.707 208.511, 173.985 208.068, 172.839 208.040 C 171.925 208.018, 169.989 209.412, 168.537 211.139 M 161.391 212.527 C 160.018 214.621, 159.837 216.716, 160.329 224.777 C 160.655 230.124, 161.216 235.731, 161.575 237.235 L 162.228 239.971 156.364 237.786 C 151.361 235.922, 148.371 235.594, 136 235.551 C 125.450 235.514, 120.841 235.875, 119.080 236.876 C 116.852 238.143, 116.505 238.040, 114.721 235.591 C 108.391 226.902, 92.174 226.487, 82.750 234.771 C 80.447 236.796, 80.542 237.720, 83.139 238.544 C 84.315 238.917, 88.027 241.013, 91.389 243.200 C 97.158 246.955, 97.808 247.143, 103 246.562 C 106.809 246.136, 109.780 245.032, 112.663 242.973 C 116.131 240.497, 117.887 239.973, 123.163 239.837 L 129.500 239.674 124 239.062 L 118.500 238.450 122.500 237.231 C 128.990 235.252, 144.465 235.681, 152.522 238.063 C 165.069 241.773, 163.989 242.070, 162.407 235.346 C 160.699 228.088, 160.602 217.055, 162.212 213.315 C 163.379 210.606, 163.448 210.725, 164.044 216.500 L 164.664 222.500 164.832 216.250 C 165.013 209.526, 164.044 208.477, 161.391 212.527 M 289.250 211.689 C 290.212 211.941, 291.788 211.941, 292.750 211.689 C 293.712 211.438, 292.925 211.232, 291 211.232 C 289.075 211.232, 288.288 211.438, 289.250 211.689 M 295.862 212.677 C 295.663 213.146, 292.979 214.312, 289.898 215.269 C 286.817 216.226, 281.477 218.831, 278.030 221.059 C 270.023 226.234, 257.501 238.384, 258.504 240.006 C 258.911 240.665, 260.877 241.925, 262.872 242.807 C 265.771 244.088, 270.316 244.419, 285.500 244.455 C 303.370 244.497, 304.727 244.634, 308.310 246.752 C 310.406 247.990, 311.810 248.502, 311.431 247.888 C 311.052 247.275, 308.773 245.903, 306.367 244.838 C 302.482 243.120, 300.008 242.935, 284.246 243.190 C 269.208 243.433, 265.917 243.215, 262.682 241.761 L 258.864 240.045 261.579 236.486 C 265.361 231.527, 277.750 221.759, 284.356 218.527 C 287.391 217.042, 291.703 215.581, 293.938 215.282 C 297.501 214.804, 298 214.979, 298 216.713 C 298 219.584, 300.948 221.808, 305.776 222.580 C 309.554 223.184, 310 223.045, 310 221.263 C 310 218.342, 306.477 214.353, 303.281 213.655 C 301.751 213.321, 299.538 212.773, 298.362 212.437 C 297.187 212.101, 296.062 212.209, 295.862 212.677 M 106.525 215.960 C 106.198 216.488, 107.270 219.573, 108.906 222.814 C 110.993 226.948, 112.763 229.073, 114.833 229.931 C 118.531 231.463, 122.992 230.990, 124.281 228.929 C 126.484 225.408, 119.012 216.014, 114 216.005 C 113.175 216.003, 114.375 216.930, 116.666 218.064 C 119.392 219.413, 121.408 221.341, 122.500 223.641 C 124.081 226.972, 124.072 227.232, 122.334 228.590 C 120.304 230.177, 115.605 229.743, 113.183 227.744 C 112.353 227.060, 110.793 224.510, 109.714 222.077 C 107.825 217.815, 107.819 217.605, 109.568 216.327 C 111.284 215.072, 111.267 215, 109.250 215 C 108.077 215, 106.851 215.432, 106.525 215.960 M 138.073 217.635 C 136.885 219.145, 136.049 221.599, 136.115 223.385 C 136.222 226.287, 136.282 226.231, 136.988 222.562 C 137.405 220.396, 138.753 217.808, 139.984 216.812 C 141.215 215.815, 141.754 215, 141.183 215 C 140.612 215, 139.212 216.186, 138.073 217.635 M 148.665 216 C 149.855 216.480, 151.304 217.689, 151.884 218.686 C 152.464 219.684, 152.953 220.007, 152.970 219.405 C 153.012 217.884, 149.643 214.987, 147.921 215.063 C 147.140 215.098, 147.474 215.520, 148.665 216 M 270.357 217.934 C 268.079 219.513, 262.736 223.569, 258.485 226.948 C 249.817 233.836, 241.596 238.389, 239.037 237.720 C 238.100 237.475, 237.333 237.835, 237.333 238.520 C 237.333 241.634, 249.705 235.374, 259.318 227.395 C 262.876 224.442, 268.187 220.445, 271.121 218.513 C 274.054 216.581, 276.015 215.014, 275.477 215.032 C 274.940 215.049, 272.636 216.355, 270.357 217.934 M 153 223.389 C 153 226.985, 149.848 230.163, 145.438 231.012 L 141.500 231.770 144.827 231.885 C 148.956 232.028, 154 227.459, 154 223.577 C 154 222.160, 153.775 221, 153.500 221 C 153.225 221, 153 222.075, 153 223.389 M 178.616 226.003 C 175.478 229.477, 175 230.666, 175 235.003 C 175 239.847, 177.284 244, 179.949 244 C 181.711 244, 186 237.332, 186 234.594 C 186 232.167, 183.176 222, 182.501 222 C 182.354 222, 180.605 223.801, 178.616 226.003 M 292.159 223.344 C 293.622 223.994, 295.825 225.420, 297.055 226.513 L 299.291 228.500 298.167 226.355 C 297.548 225.176, 295.616 223.713, 293.872 223.105 C 289.775 221.677, 288.735 221.822, 292.159 223.344 M 284.455 225.455 C 281.162 228.747, 281.161 233.803, 284.452 237.354 C 285.801 238.809, 287.411 240, 288.029 240 C 288.647 240, 287.769 238.835, 286.077 237.411 C 281.367 233.448, 282.024 227.348, 287.500 224.208 C 288.600 223.577, 288.917 223.047, 288.205 223.030 C 287.492 223.014, 285.805 224.105, 284.455 225.455 M 314.382 226.531 C 308.382 229.162, 303.447 237.372, 305.742 240.905 C 307.054 242.925, 314.231 242.734, 317.501 240.592 C 319.849 239.053, 326 228.726, 326 226.322 C 326 224.567, 318.556 224.700, 314.382 226.531 M 299.195 231.500 C 299.215 233.150, 299.439 233.704, 299.693 232.731 C 299.947 231.758, 299.930 230.408, 299.656 229.731 C 299.382 229.054, 299.175 229.850, 299.195 231.500 M 192.115 238.522 C 188.482 242.660, 187.535 245.750, 188.355 250.801 C 188.885 254.064, 191.111 257, 193.055 257 C 193.425 257, 194.914 255.814, 196.364 254.364 C 198.185 252.543, 199 250.669, 199 248.306 C 199 244.276, 197.090 236.174, 195.978 235.486 C 195.551 235.222, 193.813 236.588, 192.115 238.522 M 324.840 238.022 C 320.152 240.499, 317.039 244.434, 317.717 247.027 C 318.293 249.229, 320 250.748, 320 249.059 C 320 248.477, 321.688 247.948, 323.750 247.885 L 327.500 247.770 323.739 247.041 C 319.240 246.168, 318.763 245.781, 319.576 243.663 C 320.442 241.405, 325.782 238.301, 330.214 237.479 C 333.938 236.789, 344.450 239.302, 345.597 241.157 C 345.890 241.631, 344.739 243.190, 343.039 244.620 C 335.731 250.770, 335.289 251.214, 337.582 250.111 C 338.727 249.560, 340.270 248.380, 341.009 247.489 C 341.749 246.597, 343.625 245.211, 345.177 244.408 C 346.730 243.606, 348 242.489, 348 241.928 C 348 241.367, 345.637 239.808, 342.750 238.464 C 336.390 235.503, 329.911 235.343, 324.840 238.022 M 193.378 238.447 C 190.344 240.573, 188.654 245.386, 189.287 250.101 C 189.975 255.233, 190.762 256.013, 192.716 253.498 C 193.966 251.890, 194.152 251.841, 193.666 253.250 C 192.813 255.726, 194.590 255.423, 196.443 252.777 C 198.256 250.190, 198.349 244.883, 196.665 240.237 C 195.552 237.170, 195.355 237.063, 193.378 238.447 M 129.323 243.696 C 126.747 244.198, 117.995 251.655, 118.011 253.335 C 118.017 253.976, 119.219 252.981, 120.682 251.125 C 124.827 245.864, 135.610 241.942, 137.504 245.007 C 137.846 245.561, 137.118 247.473, 135.886 249.257 L 133.645 252.500 136.318 250.079 C 139.826 246.904, 140.295 247.624, 138.025 252.696 C 135.923 257.391, 132.515 260.014, 127.164 261.056 C 123.915 261.689, 123.822 261.783, 126.349 261.885 C 130.783 262.064, 135.313 259.371, 138.284 254.788 C 143.843 246.215, 140.111 241.596, 129.323 243.696 M 179 248.313 C 179 248.485, 180.463 249.948, 182.250 251.563 L 185.500 254.500 182.563 251.250 C 179.825 248.221, 179 247.540, 179 248.313 M 149.500 251.282 C 147.226 252.560, 144.746 255.034, 143.752 257.015 C 141.983 260.540, 141.306 270, 142.822 270 C 145.315 270, 155.227 263.461, 156.518 260.965 C 158.397 257.331, 158.423 252.280, 156.571 250.429 C 154.706 248.563, 154.235 248.620, 149.500 251.282 M 294.768 249.725 C 296.565 249.947, 299.265 249.943, 300.768 249.715 C 302.271 249.486, 300.800 249.304, 297.500 249.310 C 294.200 249.315, 292.971 249.502, 294.768 249.725 M 313.398 251.505 C 313.693 253.517, 316 255.906, 316 254.200 C 316 253.540, 315.523 253, 314.941 253 C 314.359 253, 314.141 252.581, 314.457 252.069 C 314.774 251.557, 314.615 250.880, 314.104 250.564 C 313.593 250.249, 313.276 250.672, 313.398 251.505 M 296.406 255.519 C 295.573 258.839, 297.621 263.595, 300.882 265.911 C 302.322 266.933, 306.087 268.427, 309.250 269.231 L 315 270.692 314.864 267.596 C 314.760 265.238, 314.624 265.037, 314.294 266.752 C 313.935 268.615, 313.398 268.901, 311.180 268.412 C 302.193 266.429, 298.737 263.938, 297.424 258.500 L 296.701 255.500 298.996 257.500 L 301.291 259.500 300.146 257.316 C 298.573 254.317, 298.630 254.189, 301.750 253.716 C 303.974 253.379, 303.786 253.271, 300.769 253.150 C 297.558 253.021, 296.950 253.351, 296.406 255.519 M 188 256.500 C 189.292 257.875, 190.574 259, 190.849 259 C 191.124 259, 190.292 257.875, 189 256.500 C 187.708 255.125, 186.426 254, 186.151 254 C 185.876 254, 186.708 255.125, 188 256.500 M 319.012 256.977 C 317.726 259.381, 319.624 264.520, 322.864 267.407 C 325.123 269.419, 337.694 272.304, 338.503 270.996 C 339.196 269.873, 336.961 263.917, 334.675 260.797 C 330.948 255.712, 320.989 253.283, 319.012 256.977 M 172 257.170 C 176.155 261.360, 184.139 268.053, 181.500 265.134 C 179.850 263.308, 176.700 260.429, 174.500 258.736 C 172.300 257.042, 171.175 256.338, 172 257.170 M 309.906 257.824 C 310.513 258.959, 311.503 260.193, 312.105 260.565 C 312.889 261.050, 312.886 260.656, 312.094 259.176 C 311.487 258.041, 310.497 256.807, 309.895 256.435 C 309.111 255.950, 309.114 256.344, 309.906 257.824 M 275.154 259.112 C 274.219 261.639, 274.948 265.342, 277.037 268.688 C 278.078 270.354, 287.718 276, 289.522 276 C 289.785 276, 290 273.518, 290 270.485 C 290 265.652, 289.598 264.536, 286.750 261.451 C 284.560 259.079, 282.281 257.737, 279.765 257.337 C 276.483 256.815, 275.924 257.030, 275.154 259.112 M 256.750 259.572 C 253.012 261.600, 253.239 262.445, 257 260.500 C 258.650 259.647, 260 258.735, 260 258.474 C 260 257.831, 259.893 257.867, 256.750 259.572 M 202.249 262.250 C 201.174 265.188, 201.201 265.314, 202.530 263.559 C 203.802 261.879, 204.553 259, 203.719 259 C 203.565 259, 202.903 260.462, 202.249 262.250 M 115.116 261.795 C 115.009 263.914, 115.289 264.038, 118.750 263.413 C 123.668 262.524, 124.584 261.550, 119.809 262.286 C 116.890 262.736, 116.026 262.504, 115.675 261.177 C 115.371 260.027, 115.196 260.221, 115.116 261.795 M 170.845 261.673 C 172.571 262.035, 173.058 262.671, 172.688 264.083 C 172.412 265.139, 172.595 265.751, 173.093 265.442 C 174.590 264.517, 174.116 268.390, 172.439 270.783 C 170.734 273.217, 167.042 275.350, 162.750 276.379 C 160.197 276.991, 160 276.814, 160 273.923 C 160 270.050, 162.424 265.824, 165.873 263.684 C 167.318 262.787, 167.972 262.041, 167.327 262.027 C 163.425 261.938, 158 270.569, 158 276.866 C 158 279.491, 157.948 279.491, 165.271 276.821 C 172.238 274.281, 175.207 270.586, 174.772 265 C 174.530 261.880, 174.174 261.483, 171.500 261.341 C 169.294 261.225, 169.121 261.313, 170.845 261.673 M 257.667 263.667 C 256.609 264.724, 256.890 268.664, 258.232 271.611 C 259.556 274.515, 269.647 279.774, 271.072 278.303 C 271.499 277.861, 271.475 275.488, 271.018 273.028 C 270.130 268.245, 265.487 262.966, 262.234 263.039 C 261.237 263.062, 261.854 263.667, 263.685 264.464 C 265.437 265.226, 267.575 267.211, 268.435 268.875 C 270.130 272.152, 270.540 277, 269.122 277 C 267.446 277, 261.335 274.108, 260.251 272.802 C 258.648 270.871, 257.439 265.535, 258.794 266.372 C 259.451 266.779, 259.819 266.246, 259.727 265.022 C 259.571 262.954, 258.852 262.481, 257.667 263.667 M 246.924 266.750 L 244.500 269.500 247.250 267.076 C 249.820 264.810, 250.459 264, 249.674 264 C 249.495 264, 248.258 265.238, 246.924 266.750 M 240.037 273.250 L 237.697 276.500 240.849 273.563 C 244.189 270.450, 244.484 270, 243.188 270 C 242.741 270, 241.323 271.462, 240.037 273.250 M 198.195 303.500 C 198.215 305.150, 198.439 305.704, 198.693 304.731 C 198.947 303.758, 198.930 302.408, 198.656 301.731 C 198.382 301.054, 198.175 301.850, 198.195 303.500 M 228.300 311 C 228.300 314.025, 228.487 315.262, 228.716 313.750 C 228.945 312.238, 228.945 309.762, 228.716 308.250 C 228.487 306.738, 228.300 307.975, 228.300 311 M 198.195 314.500 C 198.215 316.150, 198.439 316.704, 198.693 315.731 C 198.947 314.758, 198.930 313.408, 198.656 312.731 C 198.382 312.054, 198.175 312.850, 198.195 314.500 M 229.195 325.500 C 229.215 327.150, 229.439 327.704, 229.693 326.731 C 229.947 325.758, 229.930 324.408, 229.656 323.731 C 229.382 323.054, 229.175 323.850, 229.195 325.500 M 183 351.500 C 180.571 353.975, 178.809 356, 179.084 356 C 179.359 356, 181.571 353.975, 184 351.500 C 186.429 349.025, 188.191 347, 187.916 347 C 187.641 347, 185.429 349.025, 183 351.500 M 240.217 355.470 C 243.185 358.609, 244.898 359.535, 248.717 360.067 C 251.348 360.433, 233.700 360.737, 209.500 360.741 C 185.300 360.746, 167.300 360.444, 169.500 360.070 C 173.379 359.411, 178 357.437, 178 356.439 C 178 356.169, 176.672 356.635, 175.050 357.474 C 173.427 358.313, 169.939 359.006, 167.300 359.014 C 161.700 359.030, 158 359.866, 158 361.117 C 158 361.616, 180.451 362, 209.700 362 C 248.919 362, 261.120 361.720, 260.240 360.840 C 259.602 360.202, 255.701 359.404, 251.571 359.066 C 244.812 358.513, 243.683 358.106, 240.281 354.995 L 236.500 351.538 240.217 355.470" stroke="none" fill="#e8b768" fill-rule="evenodd"/><path d="M 242.500 128.837 C 234.599 133.655, 228.849 143.646, 226.523 156.596 C 223.282 174.634, 220.717 186, 219.886 186 C 219.417 186, 217.849 183.662, 216.401 180.804 C 213.289 174.663, 204.141 165.307, 198.500 162.494 C 189.874 158.194, 186.223 155.089, 183.600 149.824 C 182.170 146.955, 181 143.597, 181 142.363 C 181 141.128, 180.550 139.840, 180 139.500 C 177.597 138.015, 179.932 152.152, 183.215 158.965 C 184.478 161.586, 189.454 167.510, 195.004 173 C 205.048 182.935, 208 187.524, 208 193.201 C 208 198.808, 206.285 199.321, 202.296 194.906 C 198.245 190.422, 190.633 186.464, 176.573 181.531 C 165.184 177.536, 161.363 174.474, 157.207 166.012 C 154.715 160.937, 154.500 159.535, 154.500 148.337 C 154.500 141.648, 154.359 136.314, 154.187 136.484 C 152.768 137.884, 150.926 149.249, 150.860 157 C 150.750 170.101, 153.137 176.421, 161.191 184.350 C 164.459 187.568, 166.896 190.438, 166.606 190.727 C 166.317 191.017, 161.449 191.261, 155.790 191.270 C 139.883 191.296, 128.430 187.652, 119.381 179.686 C 113.518 174.526, 115.183 178.071, 121.248 183.661 C 130.618 192.298, 143.832 197.396, 165.988 200.924 C 174.065 202.210, 181.581 204.035, 184.724 205.474 C 202.365 213.550, 210.973 236.892, 204.432 258.918 C 203.585 261.771, 202.226 264.360, 201.413 264.672 C 197.675 266.106, 178.299 249.303, 171.810 239 C 167.067 231.471, 164.931 225.673, 164.073 218 C 163.384 211.835, 163.286 211.645, 162.173 214.315 C 160.566 218.172, 160.726 227.211, 162.537 234.895 C 163.366 238.412, 163.922 241.409, 163.772 241.555 C 163.622 241.702, 160.125 240.656, 156 239.232 C 146.783 236.049, 130.208 235.059, 123 237.259 L 118.500 238.633 127.765 239.354 C 138.454 240.185, 147.570 242.743, 157.500 247.697 C 192.752 265.285, 206.684 297.380, 194.862 333.766 C 190.917 345.910, 180.247 357.998, 171.672 360.040 C 169.928 360.455, 186.950 360.782, 209.500 360.766 C 232.050 360.750, 249.018 360.458, 247.206 360.118 C 243.394 359.403, 237.609 354.114, 234.961 348.923 C 230.670 340.513, 228.716 329.311, 228.605 312.500 C 228.511 298.110, 228.739 295.810, 230.867 289.643 C 238.434 267.721, 259.808 252.986, 288.647 249.809 C 298.475 248.726, 307.079 249.343, 312.500 251.518 C 314.252 252.221, 314.195 251.986, 312.046 249.629 C 307.812 244.985, 300.756 243.648, 284.563 244.422 C 273.266 244.962, 269.491 244.789, 265.370 243.544 C 256.393 240.832, 256.444 240.012, 266.177 230.560 C 272.552 224.369, 276.813 221.217, 282.975 218.133 C 287.516 215.860, 292.417 213.986, 293.866 213.970 C 296.197 213.943, 296.291 213.818, 294.687 212.884 C 292.349 211.525, 283.963 212.658, 278.252 215.107 C 273.071 217.327, 266.599 221.658, 258.746 228.158 C 251.786 233.918, 245.777 237.482, 240.750 238.832 C 236.061 240.091, 235.941 239.157, 239.696 230.625 C 245.515 217.408, 253.710 207.345, 264.575 200.078 C 272.831 194.556, 280.479 191.392, 290 189.558 L 296.500 188.306 291.068 186.653 C 281.469 183.732, 270.176 184.797, 260.792 189.510 C 258.157 190.834, 256 191.756, 256 191.559 C 256 191.362, 257.637 188.793, 259.638 185.850 C 267.017 174.999, 272.687 159.500, 271.417 153.653 C 270.845 151.022, 270.341 151.630, 264.783 161.653 C 254.953 179.380, 246.748 189.981, 238.752 195.289 C 233.487 198.784, 227.302 201.182, 228.172 199.391 C 232.931 189.599, 234.947 180.788, 235.010 169.500 C 235.128 148.232, 237.789 136.924, 244.247 130.250 C 247.749 126.631, 247.047 126.064, 242.500 128.837 M 201.923 135.923 C 198.092 139.754, 197.967 144.619, 201.589 148.923 C 205.106 153.103, 211.422 153.305, 215.364 149.364 C 221.224 143.503, 216.818 133, 208.500 133 C 205.795 133, 204.087 133.759, 201.923 135.923 M 131.455 165.455 C 127.929 168.980, 128.195 173.145, 132.158 176.480 C 134.526 178.472, 135.965 178.979, 137.908 178.506 C 141.992 177.510, 144.400 174.501, 144.400 170.393 C 144.400 163.517, 136.432 160.477, 131.455 165.455 M 277.455 167.455 C 274.230 170.680, 274.245 174.942, 277.492 177.992 C 282.747 182.929, 290.400 179.610, 290.400 172.393 C 290.400 165.517, 282.432 162.477, 277.455 167.455 M 142.357 216.001 C 139.566 217.115, 137 220.836, 137 223.768 C 137 227.055, 141.279 231, 144.844 231 C 151.439 231, 155.126 223.466, 150.842 218.744 C 148.088 215.707, 145.328 214.815, 142.357 216.001 M 285.073 226.635 C 282.588 229.794, 282.436 232.750, 284.601 235.841 C 287.021 239.296, 290.547 240.286, 294.027 238.486 C 299.445 235.684, 300.541 230.450, 296.545 226.455 C 293.104 223.014, 287.856 223.096, 285.073 226.635" stroke="none" fill="#494949" fill-rule="evenodd"/></svg>